<?xml version="1.0" standalone="no"?>
<!DOCTYPE svg PUBLIC "-//W3C//DTD SVG 20010904//EN"
 "http://www.w3.org/TR/2001/REC-SVG-20010904/DTD/svg10.dtd">
<svg version="1.0" xmlns="http://www.w3.org/2000/svg"
 width="134.000000pt" height="366.000000pt" viewBox="0 0 134.000000 366.000000"
 preserveAspectRatio="xMidYMid meet">

<g transform="translate(0.000000,366.000000) scale(0.100000,-0.100000)"
fill="#000000" stroke="none">
<path d="M822 3628 c-24 -40 -59 -140 -68 -197 -8 -50 -2 -58 83 -107 84 -49
149 -107 184 -163 28 -44 28 -44 10 -70 -30 -41 -154 -107 -377 -197 -264
-107 -371 -164 -446 -236 -79 -76 -103 -130 -103 -233 0 -96 19 -139 90 -204
87 -80 197 -117 534 -176 151 -27 317 -70 338 -87 19 -16 8 -25 -76 -67 -122
-62 -217 -90 -551 -166 -91 -21 -194 -52 -235 -73 -63 -31 -132 -93 -161 -144
-26 -48 -29 -62 -29 -148 0 -83 3 -102 28 -151 32 -66 104 -137 173 -172 111
-55 242 -73 540 -75 105 -1 202 -6 215 -11 22 -8 14 -13 -76 -56 -441 -209
-463 -224 -517 -332 -29 -59 -33 -78 -33 -143 0 -46 7 -95 18 -127 23 -64 89
-140 154 -175 97 -53 399 -122 427 -98 33 26 63 288 38 326 -4 7 -45 12 -102
13 -155 3 -298 30 -307 57 -2 6 50 27 119 48 167 51 365 149 452 223 127 108
174 228 131 339 -60 159 -219 215 -670 239 -123 6 -190 15 -307 41 -114 26
-108 29 215 99 213 46 421 102 497 132 196 79 293 181 321 340 9 49 8 72 -5
124 -21 79 -44 116 -108 174 -118 106 -303 164 -736 231 -61 10 -109 21 -105
24 5 4 37 15 73 25 181 48 386 126 480 181 320 186 360 603 85 885 -63 65
-151 139 -165 139 -5 0 -17 -15 -28 -32z"/>
</g>
</svg>
