<?xml version="1.0" standalone="no"?>
<!DOCTYPE svg PUBLIC "-//W3C//DTD SVG 20010904//EN"
 "http://www.w3.org/TR/2001/REC-SVG-20010904/DTD/svg10.dtd">
<svg version="1.0" xmlns="http://www.w3.org/2000/svg"
 width="89.000000pt" height="244.000000pt" viewBox="0 0 89.000000 244.000000"
 preserveAspectRatio="xMidYMid meet">

<g transform="translate(0.000000,244.000000) scale(0.100000,-0.100000)"
fill="#000000" stroke="none">
<path d="M181 2370 c-138 -93 -174 -146 -173 -259 1 -128 104 -276 249 -357
81 -46 226 -102 343 -133 108 -29 125 -38 110 -56 -6 -7 -55 -32 -108 -56
-225 -98 -329 -175 -382 -283 -70 -141 -40 -370 64 -494 16 -18 80 -69 143
-114 63 -45 119 -90 124 -100 24 -45 -38 -103 -206 -189 -79 -41 -105 -59
-105 -74 0 -11 10 -71 23 -133 l22 -114 41 5 c63 7 204 79 268 138 39 36 67
73 93 127 l38 76 0 135 c0 127 -2 140 -27 194 -30 64 -115 159 -195 218 -28
21 -64 54 -78 73 -34 45 -25 62 57 112 133 79 258 175 308 237 110 136 124
338 31 469 -35 49 -109 101 -240 169 -60 31 -125 66 -145 78 -67 42 -96 119
-112 291 -6 76 -16 100 -40 100 -7 0 -53 -27 -103 -60z"/>
</g>
</svg>
