<?xml version="1.0" standalone="no"?>
<!DOCTYPE svg PUBLIC "-//W3C//DTD SVG 20010904//EN"
 "http://www.w3.org/TR/2001/REC-SVG-20010904/DTD/svg10.dtd">
<svg version="1.0" xmlns="http://www.w3.org/2000/svg"
 width="117.000000pt" height="378.000000pt" viewBox="0 0 117.000000 378.000000"
 preserveAspectRatio="xMidYMid meet">

<g transform="translate(0.000000,378.000000) scale(0.100000,-0.100000)"
fill="#000000" stroke="none">
<path d="M693 3662 c-71 -60 -198 -162 -281 -226 -191 -148 -288 -250 -342
-359 -77 -156 -78 -331 -5 -486 67 -141 130 -193 390 -321 317 -157 470 -256
490 -319 15 -49 -66 -142 -245 -280 -222 -170 -315 -272 -394 -429 -124 -247
-85 -566 91 -734 77 -74 131 -91 398 -127 105 -15 131 -33 127 -92 -3 -50 -31
-159 -43 -174 -27 -29 24 -83 99 -104 29 -9 34 -6 68 32 93 108 133 266 104
416 -14 74 -38 119 -90 172 -70 70 -129 88 -342 105 -185 15 -262 33 -306 74
-31 29 -28 62 14 141 50 94 131 180 303 317 239 191 321 286 379 440 23 59 26
82 26 202 1 312 -84 406 -599 659 -227 112 -325 169 -325 190 0 26 124 138
261 236 242 175 361 277 437 375 34 44 92 161 92 185 0 26 -68 143 -109 188
-13 15 -34 27 -46 27 -13 0 -75 -44 -152 -108z"/>
</g>
</svg>
