<?xml version="1.0" standalone="no"?>
<!DOCTYPE svg PUBLIC "-//W3C//DTD SVG 20010904//EN"
 "http://www.w3.org/TR/2001/REC-SVG-20010904/DTD/svg10.dtd">
<svg version="1.0" xmlns="http://www.w3.org/2000/svg"
 width="45.000000pt" height="160.000000pt" viewBox="0 0 45.000000 160.000000"
 preserveAspectRatio="xMidYMid meet">

<g transform="translate(0.000000,160.000000) scale(0.100000,-0.100000)"
fill="#000000" stroke="none">
<path d="M218 1560 c-57 -40 -134 -132 -170 -203 -31 -63 -51 -172 -43 -250
11 -119 48 -212 141 -351 56 -86 81 -155 71 -198 -4 -14 -42 -65 -84 -113
-121 -136 -115 -118 -107 -280 4 -77 8 -143 11 -147 31 -54 253 184 330 351
48 104 74 207 75 298 2 95 -6 113 -113 244 -43 53 -88 115 -100 138 -21 40
-21 45 -6 75 8 18 50 64 92 102 l77 69 -5 66 c-7 86 -42 188 -73 217 -14 12
-29 22 -33 22 -4 0 -33 -18 -63 -40z"/>
</g>
</svg>
