<svg width="75" height="75" viewBox="0 0 75 75" fill="none" xmlns="http://www.w3.org/2000/svg">
<path d="M38.898 24L28.773 34.125H57.75V40.875H28.773L38.898 51L34.125 55.773L15.852 37.5L34.125 19.227L38.898 24Z" fill="black"/>
<path fill-rule="evenodd" clip-rule="evenodd" d="M0.375 37.5C0.375 16.9964 16.9964 0.375 37.5 0.375C58.0036 0.375 74.625 16.9964 74.625 37.5C74.625 58.0036 58.0036 74.625 37.5 74.625C16.9964 74.625 0.375 58.0036 0.375 37.5ZM37.5 7.125C20.7244 7.125 7.125 20.7244 7.125 37.5C7.125 54.2756 20.7244 67.875 37.5 67.875C54.2756 67.875 67.875 54.2756 67.875 37.5C67.875 20.7244 54.2756 7.125 37.5 7.125Z" fill="black"/>
</svg>
