<svg width="81" height="81" viewBox="0 0 81 81" fill="none" xmlns="http://www.w3.org/2000/svg">
<g clip-path="url(#clip0_45_81)">
<path d="M40.5 74.25C21.8599 74.25 6.75 59.1401 6.75 40.5C6.75 21.8599 21.8599 6.75 40.5 6.75C59.1401 6.75 74.25 21.8599 74.25 40.5C74.25 59.1401 59.1401 74.25 40.5 74.25ZM40.5 67.5C47.6608 67.5 54.5284 64.6554 59.5919 59.5919C64.6554 54.5284 67.5 47.6608 67.5 40.5C67.5 33.3392 64.6554 26.4716 59.5919 21.4081C54.5284 16.3446 47.6608 13.5 40.5 13.5C33.3392 13.5 26.4716 16.3446 21.4081 21.4081C16.3446 26.4716 13.5 33.3392 13.5 40.5C13.5 47.6608 16.3446 54.5284 21.4081 59.5919C26.4716 64.6554 33.3392 67.5 40.5 67.5ZM40.5 35.7278L50.0445 26.1799L54.8201 30.9555L45.2722 40.5L54.8201 50.0445L50.0445 54.8201L40.5 45.2722L30.9555 54.8201L26.1799 50.0445L35.7278 40.5L26.1799 30.9555L30.9555 26.1799L40.5 35.7278Z" fill="#262626"/>
</g>
<defs>
<clipPath id="clip0_45_81">
<rect width="81" height="81" fill="white"/>
</clipPath>
</defs>
</svg>
