<svg width="101" height="101" viewBox="0 0 101 101" fill="none" xmlns="http://www.w3.org/2000/svg">
<g clip-path="url(#clip0_45_106)">
<path d="M88.375 63.125V75.75H101V84.1667H88.375V96.7917H79.9584V84.1667H67.3334V75.75H79.9584V63.125H88.375ZM88.4087 12.625C90.7149 12.625 92.5834 14.4977 92.5834 16.8039V54.7083H84.1667V21.0417H16.8334V79.9541L58.9167 37.875L71.5417 50.5V62.4054L58.9167 49.7804L28.7303 79.9583H58.9167V88.375H12.5914C11.4838 88.3739 10.4219 87.9331 9.63916 87.1495C8.85638 86.366 8.41669 85.3037 8.41669 84.1961V16.8039C8.42439 15.6987 8.86656 14.6409 9.64768 13.859C10.4288 13.0771 11.4862 12.6338 12.5914 12.625H88.4087ZM33.6667 29.4583C35.8989 29.4583 38.0397 30.3451 39.6182 31.9235C41.1966 33.5019 42.0834 35.6428 42.0834 37.875C42.0834 40.1072 41.1966 42.248 39.6182 43.8265C38.0397 45.4049 35.8989 46.2917 33.6667 46.2917C31.4344 46.2917 29.2936 45.4049 27.7152 43.8265C26.1368 42.248 25.25 40.1072 25.25 37.875C25.25 35.6428 26.1368 33.5019 27.7152 31.9235C29.2936 30.3451 31.4344 29.4583 33.6667 29.4583Z" fill="#B8A58C"/>
</g>
<defs>
<clipPath id="clip0_45_106">
<rect width="101" height="101" fill="white"/>
</clipPath>
</defs>
</svg>
